<?xml version="1.0" encoding="utf-8"?>
<!-- Generator: Adobe Illustrator 16.0.3, SVG Export Plug-In . SVG Version: 6.00 Build 0)  -->
<!DOCTYPE svg PUBLIC "-//W3C//DTD SVG 1.1//EN" "http://www.w3.org/Graphics/SVG/1.1/DTD/svg11.dtd">
<svg version="1.1" id="Layer_1" xmlns="http://www.w3.org/2000/svg" xmlns:xlink="http://www.w3.org/1999/xlink" x="0px" y="0px"
	 width="373px" height="33.291px" viewBox="0 0 373 33.291" enable-background="new 0 0 373 33.291" xml:space="preserve">
<g>
	<rect y="8.343" fill="none" width="373" height="24.333"/>
	<path fill="#004281" d="M4.427,13.125c0-4.103,0-4.859-0.054-5.723c-0.054-0.917-0.27-1.35-1.161-1.539
		C2.996,5.81,2.537,5.783,2.159,5.783c-0.297,0-0.458-0.054-0.458-0.243S1.89,5.297,2.294,5.297c1.431,0,3.131,0.081,3.671,0.081
		c1.323,0,2.375-0.081,3.293-0.081c4.886,0,5.75,2.619,5.75,4.049c0,2.213-1.269,3.536-2.753,4.724
		c2.213,0.756,4.913,2.672,4.913,5.83c0,2.888-2.24,5.885-7.207,5.885c-0.324,0-1.107-0.054-1.89-0.081
		c-0.81-0.054-1.62-0.081-2.024-0.081c-0.297,0-0.891,0-1.539,0.027c-0.621,0-1.323,0.054-1.862,0.054
		c-0.351,0-0.54-0.081-0.54-0.27c0-0.135,0.108-0.216,0.432-0.216c0.405,0,0.729-0.054,0.972-0.108
		c0.54-0.108,0.675-0.702,0.783-1.485c0.135-1.134,0.135-3.266,0.135-5.75V13.125z M7.666,13.584c0,0.216,0.081,0.27,0.189,0.297
		c0.243,0.054,0.648,0.081,1.269,0.081c0.891,0,1.485-0.108,1.943-0.513c0.702-0.567,1.107-1.539,1.107-2.861
		c0-1.809-1.053-4.184-3.374-4.184c-0.378,0-0.621,0-0.891,0.054C7.72,6.512,7.666,6.62,7.666,6.917V13.584z M11.229,15.743
		c-0.567-0.405-1.188-0.594-2.24-0.648c-0.486-0.027-0.756-0.027-1.161-0.027c-0.108,0-0.162,0.054-0.162,0.189v6.397
		c0,1.781,0.081,2.24,0.945,2.591c0.729,0.297,1.35,0.324,1.97,0.324c1.215,0,3.266-0.648,3.266-3.455
		C13.847,19.441,13.28,17.174,11.229,15.743z"/>
	<path fill="#004281" d="M21.653,15.5c0-4.616,3.05-10.582,11.148-10.582c6.721,0,10.905,3.914,10.905,10.095
		c0,6.182-4.319,11.067-11.175,11.067C24.785,26.082,21.653,20.278,21.653,15.5z M39.928,16.013c0-6.046-3.482-9.798-7.909-9.798
		c-3.104,0-6.64,1.728-6.64,8.449c0,5.614,3.104,10.068,8.287,10.068C35.555,24.732,39.928,23.814,39.928,16.013z"/>
	<path fill="#004281" d="M67.629,23.895c0,0.729-0.027,0.783-0.351,0.972c-1.754,0.918-4.4,1.215-6.505,1.215
		c-6.613,0-12.471-3.131-12.471-10.581c0-4.319,2.241-7.342,4.697-8.827c2.591-1.566,4.994-1.755,7.261-1.755
		c1.862,0,4.238,0.324,4.778,0.432c0.567,0.108,1.512,0.27,2.132,0.297c0.324,0.027,0.378,0.135,0.378,0.324
		c0,0.297-0.189,1.053-0.189,4.427c0,0.432-0.081,0.567-0.297,0.567c-0.189,0-0.243-0.135-0.27-0.351
		c-0.081-0.621-0.216-1.485-0.917-2.241c-0.81-0.864-2.969-2.105-6.02-2.105c-1.485,0-3.455,0.108-5.345,1.674
		c-1.512,1.269-2.483,3.293-2.483,6.613c0,5.803,3.698,10.149,9.394,10.149c0.702,0,1.646,0,2.294-0.297
		c0.405-0.189,0.513-0.54,0.513-0.999v-2.538c0-1.35,0-2.375-0.027-3.185c-0.027-0.917-0.27-1.35-1.161-1.539
		c-0.216-0.054-0.675-0.081-1.053-0.081c-0.243,0-0.405-0.054-0.405-0.216c0-0.216,0.189-0.27,0.567-0.27
		c1.403,0,3.104,0.081,3.914,0.081c0.836,0,2.267-0.081,3.158-0.081c0.351,0,0.54,0.054,0.54,0.27c0,0.162-0.162,0.216-0.351,0.216
		c-0.216,0-0.405,0.027-0.729,0.081c-0.729,0.135-0.999,0.594-1.026,1.539c-0.027,0.81-0.027,1.89-0.027,3.239V23.895z
		 M55.941,0.897l0.891-0.702c0.189-0.162,0.27-0.189,0.351-0.189c0.162,0,0.324,0.351,0.567,0.621
		c0.945,1.106,1.781,1.188,2.483,1.188c1.188,0,2.105-0.567,2.375-0.756c0.836-0.648,0.999-0.999,1.188-0.999
		c0.135,0,0.216,0.108,0.216,0.243c0,0.405-1.08,1.593-1.701,1.998c-0.891,0.594-1.565,0.918-2.915,0.918
		c-0.756,0-1.89-0.324-2.672-0.972c-0.405-0.324-0.999-0.864-0.999-1.08C55.726,1.005,55.86,0.951,55.941,0.897z"/>
	<path fill="#004281" d="M77.866,18.82c-0.135,0-0.189,0.054-0.243,0.216l-1.458,3.698c-0.27,0.675-0.405,1.323-0.405,1.646
		c0,0.486,0.243,0.837,1.08,0.837h0.405c0.324,0,0.405,0.054,0.405,0.216c0,0.216-0.162,0.27-0.459,0.27
		c-0.864,0-2.024-0.081-2.861-0.081c-0.297,0-1.782,0.081-3.186,0.081c-0.351,0-0.513-0.054-0.513-0.27
		c0-0.162,0.108-0.216,0.324-0.216c0.243,0,0.621-0.027,0.837-0.054c1.242-0.162,1.754-1.08,2.294-2.429l6.775-16.735
		c0.324-0.783,0.486-1.08,0.755-1.08c0.243,0,0.405,0.243,0.675,0.864c0.647,1.485,4.966,12.282,6.694,16.385
		c1.026,2.429,1.809,2.807,2.375,2.942c0.405,0.081,0.81,0.108,1.134,0.108c0.216,0,0.351,0.027,0.351,0.216
		c0,0.216-0.243,0.27-1.241,0.27c-0.972,0-2.942,0-5.102-0.054c-0.486-0.027-0.81-0.027-0.81-0.216c0-0.162,0.108-0.216,0.378-0.243
		c0.189-0.054,0.378-0.297,0.243-0.621l-2.159-5.561c-0.054-0.135-0.135-0.189-0.27-0.189H77.866z M83.373,17.471
		c0.135,0,0.162-0.081,0.135-0.162l-2.429-6.64c-0.027-0.108-0.054-0.243-0.135-0.243c-0.081,0-0.135,0.135-0.162,0.243
		l-2.483,6.613c-0.027,0.108,0,0.189,0.108,0.189H83.373z"/>
	<path fill="#004281" d="M105.512,24.138c2.753,0,3.806-0.675,4.238-1.485c0.243-0.432,0.405-0.917,0.486-1.295
		c0.054-0.27,0.108-0.432,0.27-0.432c0.216,0,0.27,0.189,0.27,0.837c0,0.864-0.351,2.618-0.54,3.293
		c-0.135,0.486-0.324,0.702-0.81,0.702c-4.508,0-9.042-0.135-14.495-0.135c-0.297,0-0.458-0.081-0.458-0.27s0.081-0.324,0.405-0.81
		c3.806-5.938,7.801-12.039,11.418-17.734h-5.291c-1.377,0-3.023,0.081-3.887,0.567c-0.891,0.486-1.376,1.484-1.458,2.105
		c-0.054,0.378-0.162,0.486-0.324,0.486c-0.189,0-0.216-0.135-0.216-0.459c0-0.621,0.405-3.077,0.54-3.887
		c0.054-0.378,0.162-0.513,0.324-0.513c0.243,0,0.405,0.162,1.08,0.189c2.564,0.108,3.86,0.081,4.966,0.081h8.233
		c0.27,0,0.459,0.081,0.459,0.216c0,0.162-0.108,0.324-0.216,0.513c-3.725,6.046-7.828,12.228-11.634,18.031H105.512z"/>
	<path fill="#004281" d="M118.096,13.125c0-4.103,0-4.859-0.054-5.723c-0.054-0.917-0.324-1.376-0.918-1.512
		c-0.297-0.081-0.648-0.108-0.972-0.108c-0.27,0-0.432-0.054-0.432-0.27c0-0.162,0.216-0.216,0.648-0.216
		c1.026,0,2.727,0.081,3.509,0.081c0.675,0,2.267-0.081,3.293-0.081c0.351,0,0.567,0.054,0.567,0.216c0,0.216-0.162,0.27-0.432,0.27
		c-0.27,0-0.486,0.027-0.81,0.081c-0.729,0.135-0.945,0.594-0.999,1.539c-0.054,0.864-0.054,1.62-0.054,5.723v4.75
		c0,2.619,0,4.751,0.108,5.912c0.081,0.729,0.27,1.215,1.08,1.323c0.378,0.054,0.972,0.108,1.377,0.108
		c0.297,0,0.432,0.081,0.432,0.216c0,0.189-0.216,0.27-0.513,0.27c-1.782,0-3.482-0.081-4.211-0.081
		c-0.621,0-2.321,0.081-3.401,0.081c-0.351,0-0.54-0.081-0.54-0.27c0-0.135,0.108-0.216,0.432-0.216
		c0.405,0,0.729-0.054,0.972-0.108c0.54-0.108,0.702-0.567,0.783-1.35c0.135-1.134,0.135-3.266,0.135-5.885V13.125z M118.258,1.707
		c0-0.675,0.432-1.566,1.512-1.566c0.864,0,1.539,0.567,1.539,1.458c0,0.891-0.621,1.62-1.539,1.62
		C118.69,3.219,118.258,2.382,118.258,1.707z"/>
	<path fill="#004281" d="M137.94,27.485c1.97,0.189,3.185,0.945,3.185,2.16c0,1.08-1.107,2.888-4.967,2.888
		c-0.243,0-0.459-0.081-0.459-0.27c0-0.243,0.324-0.351,0.702-0.351c0.891,0,2.267-0.675,2.267-1.809
		c0-0.729-0.324-1.701-2.132-1.971c-0.378-0.054-0.594-0.135-0.594-0.216s0.081-0.135,0.432-0.405l2.16-1.62
		c-5.021-0.675-9.826-3.833-9.826-10.716c0-1.835,0.567-5.021,3.158-7.396c1.944-1.781,4.508-2.861,8.53-2.861
		c1.674,0,2.672,0.108,3.914,0.27c1.026,0.135,1.89,0.378,2.699,0.459c0.297,0.027,0.405,0.162,0.405,0.324
		c0,0.216-0.081,0.54-0.135,1.485c-0.054,0.891-0.027,2.375-0.081,2.915c-0.027,0.405-0.081,0.621-0.324,0.621
		c-0.216,0-0.27-0.216-0.27-0.594c-0.027-0.836-0.378-1.781-1.053-2.483c-0.891-0.945-2.996-1.674-5.479-1.674
		c-2.349,0-3.887,0.594-5.075,1.674c-1.971,1.808-2.483,4.373-2.483,6.991c0,6.424,4.886,9.609,8.503,9.609
		c2.402,0,3.86-0.27,4.939-1.511c0.459-0.513,0.81-1.296,0.918-1.782c0.081-0.432,0.135-0.54,0.351-0.54
		c0.189,0,0.243,0.188,0.243,0.405c0,0.324-0.324,2.672-0.594,3.59c-0.135,0.459-0.243,0.594-0.702,0.783
		c-1.08,0.432-3.131,0.621-4.858,0.621c-0.513,0-0.999-0.027-1.431-0.054L137.94,27.485z"/>
	<path fill="#004281" d="M154.87,13.125c0-4.103,0-4.859-0.055-5.723c-0.054-0.917-0.323-1.376-0.917-1.512
		c-0.298-0.081-0.648-0.108-0.973-0.108c-0.27,0-0.432-0.054-0.432-0.27c0-0.162,0.216-0.216,0.648-0.216
		c1.025,0,2.726,0.081,3.509,0.081c0.675,0,2.268-0.081,3.293-0.081c0.351,0,0.566,0.054,0.566,0.216c0,0.216-0.161,0.27-0.432,0.27
		c-0.27,0-0.485,0.027-0.81,0.081c-0.729,0.135-0.944,0.594-0.999,1.539c-0.054,0.864-0.054,1.62-0.054,5.723v4.75
		c0,2.619,0,4.751,0.108,5.912c0.08,0.729,0.27,1.215,1.079,1.323c0.378,0.054,0.972,0.108,1.377,0.108
		c0.297,0,0.432,0.081,0.432,0.216c0,0.189-0.216,0.27-0.513,0.27c-1.781,0-3.482-0.081-4.211-0.081
		c-0.621,0-2.321,0.081-3.401,0.081c-0.351,0-0.54-0.081-0.54-0.27c0-0.135,0.108-0.216,0.433-0.216
		c0.404,0,0.729-0.054,0.972-0.108c0.54-0.108,0.701-0.567,0.782-1.35c0.136-1.134,0.136-3.266,0.136-5.885V13.125z M155.031,1.707
		c0-0.675,0.433-1.566,1.512-1.566c0.864,0,1.539,0.567,1.539,1.458c0,0.891-0.621,1.62-1.539,1.62
		C155.464,3.219,155.031,2.382,155.031,1.707z"/>
	<path fill="#004281" d="M177.253,13.125c0-4.103,0-4.859-0.055-5.723c-0.054-0.917-0.27-1.35-1.16-1.539
		c-0.216-0.054-0.675-0.081-1.053-0.081c-0.297,0-0.459-0.054-0.459-0.243s0.188-0.243,0.594-0.243c1.431,0,3.131,0.081,3.94,0.081
		c0.648,0,2.349-0.081,3.32-0.081c0.405,0,0.594,0.054,0.594,0.243s-0.162,0.243-0.432,0.243c-0.297,0-0.459,0.027-0.783,0.081
		c-0.729,0.135-0.944,0.594-0.998,1.539c-0.054,0.864-0.054,1.62-0.054,5.723v3.779c0,3.914,0.782,5.561,2.104,6.64
		c1.215,0.999,2.457,1.107,3.375,1.107c1.188,0,2.645-0.378,3.725-1.458c1.484-1.485,1.565-3.914,1.565-6.694v-3.374
		c0-4.103,0-4.859-0.054-5.723c-0.054-0.917-0.271-1.35-1.161-1.539c-0.216-0.054-0.675-0.081-0.972-0.081s-0.459-0.054-0.459-0.243
		s0.189-0.243,0.567-0.243c1.376,0,3.077,0.081,3.104,0.081c0.324,0,2.025-0.081,3.077-0.081c0.378,0,0.567,0.054,0.567,0.243
		s-0.162,0.243-0.486,0.243c-0.297,0-0.458,0.027-0.782,0.081c-0.729,0.135-0.945,0.594-0.999,1.539
		c-0.054,0.864-0.054,1.62-0.054,5.723v2.888c0,2.996-0.297,6.181-2.564,8.125c-1.916,1.646-3.86,1.943-5.614,1.943
		c-1.431,0-4.022-0.081-5.992-1.863c-1.377-1.242-2.402-3.239-2.402-7.153V13.125z"/>
	<path fill="#004281" d="M204.549,22.033c0.054,2.105,0.405,2.807,0.944,2.996c0.459,0.162,0.972,0.189,1.404,0.189
		c0.297,0,0.459,0.054,0.459,0.216c0,0.216-0.243,0.27-0.621,0.27c-1.755,0-2.834-0.081-3.348-0.081
		c-0.242,0-1.511,0.081-2.915,0.081c-0.351,0-0.594-0.027-0.594-0.27c0-0.162,0.162-0.216,0.432-0.216
		c0.352,0,0.837-0.027,1.215-0.135c0.702-0.216,0.81-0.999,0.837-3.347l0.243-15.899c0-0.54,0.081-0.918,0.351-0.918
		c0.297,0,0.54,0.351,0.999,0.837c0.324,0.351,4.427,4.67,8.367,8.583c1.836,1.836,5.479,5.723,5.938,6.155h0.136l-0.271-12.12
		c-0.026-1.646-0.27-2.159-0.918-2.429c-0.404-0.162-1.053-0.162-1.431-0.162c-0.323,0-0.432-0.081-0.432-0.243
		c0-0.216,0.297-0.243,0.702-0.243c1.403,0,2.699,0.081,3.266,0.081c0.297,0,1.323-0.081,2.646-0.081
		c0.351,0,0.621,0.027,0.621,0.243c0,0.162-0.162,0.243-0.486,0.243c-0.27,0-0.485,0-0.81,0.081
		c-0.756,0.216-0.972,0.783-0.999,2.294l-0.297,17.033c0,0.594-0.107,0.836-0.351,0.836c-0.297,0-0.621-0.297-0.918-0.594
		c-1.7-1.62-5.155-5.156-7.963-7.936c-2.942-2.915-5.938-6.208-6.424-6.721h-0.081L204.549,22.033z"/>
	<path fill="#004281" d="M230.226,13.125c0-4.103,0-4.859-0.054-5.723c-0.055-0.917-0.324-1.376-0.918-1.512
		c-0.297-0.081-0.647-0.108-0.972-0.108c-0.27,0-0.432-0.054-0.432-0.27c0-0.162,0.216-0.216,0.647-0.216
		c1.025,0,2.727,0.081,3.509,0.081c0.675,0,2.268-0.081,3.294-0.081c0.351,0,0.566,0.054,0.566,0.216c0,0.216-0.162,0.27-0.432,0.27
		c-0.271,0-0.486,0.027-0.811,0.081c-0.729,0.135-0.944,0.594-0.998,1.539c-0.055,0.864-0.055,1.62-0.055,5.723v4.75
		c0,2.619,0,4.751,0.108,5.912c0.081,0.729,0.27,1.215,1.08,1.323c0.378,0.054,0.972,0.108,1.376,0.108
		c0.297,0,0.433,0.081,0.433,0.216c0,0.189-0.217,0.27-0.514,0.27c-1.781,0-3.481-0.081-4.21-0.081
		c-0.621,0-2.322,0.081-3.401,0.081c-0.352,0-0.54-0.081-0.54-0.27c0-0.135,0.108-0.216,0.432-0.216
		c0.405,0,0.729-0.054,0.972-0.108c0.54-0.108,0.702-0.567,0.783-1.35c0.135-1.134,0.135-3.266,0.135-5.885V13.125z"/>
	<path fill="#004281" d="M241.566,7.942c-0.621-1.485-1.08-1.782-2.052-2.052c-0.404-0.108-0.836-0.108-1.053-0.108
		c-0.242,0-0.323-0.081-0.323-0.243c0-0.216,0.297-0.243,0.701-0.243c1.431,0,2.97,0.081,3.914,0.081
		c0.675,0,1.971-0.081,3.32-0.081c0.324,0,0.621,0.054,0.621,0.243s-0.162,0.243-0.405,0.243c-0.432,0-0.837,0.027-1.053,0.189
		c-0.188,0.135-0.27,0.324-0.27,0.567c0,0.351,0.243,1.107,0.621,2.079l4.643,12.254h0.107c1.161-2.969,4.67-11.661,5.318-13.442
		c0.135-0.351,0.242-0.755,0.242-0.999c0-0.216-0.107-0.432-0.351-0.513c-0.324-0.108-0.729-0.135-1.08-0.135
		c-0.242,0-0.459-0.027-0.459-0.216c0-0.216,0.243-0.27,0.756-0.27c1.35,0,2.483,0.081,2.835,0.081c0.459,0,1.728-0.081,2.537-0.081
		c0.351,0,0.566,0.054,0.566,0.243s-0.162,0.243-0.432,0.243s-0.837,0-1.322,0.324c-0.352,0.243-0.756,0.702-1.485,2.429
		c-1.053,2.537-1.781,3.995-3.238,7.315c-1.728,3.941-2.997,6.883-3.591,8.233c-0.701,1.565-0.863,1.998-1.241,1.998
		c-0.351,0-0.513-0.378-1.025-1.646L241.566,7.942z"/>
	<path fill="#004281" d="M265.217,13.125c0-4.103,0-4.859-0.054-5.723c-0.054-0.917-0.271-1.35-1.161-1.539
		c-0.216-0.054-0.675-0.081-1.053-0.081c-0.297,0-0.459-0.054-0.459-0.243s0.189-0.243,0.594-0.243c0.729,0,1.512,0.027,2.187,0.027
		c0.702,0.027,1.323,0.054,1.701,0.054c0.863,0,6.235,0,6.748-0.027c0.513-0.054,0.944-0.108,1.16-0.162
		c0.136-0.027,0.297-0.108,0.433-0.108c0.135,0,0.162,0.108,0.162,0.243c0,0.189-0.136,0.513-0.217,1.755
		c-0.026,0.27-0.081,1.458-0.135,1.781c-0.026,0.135-0.081,0.297-0.27,0.297c-0.189,0-0.243-0.135-0.243-0.378
		c0-0.188-0.027-0.647-0.162-0.972c-0.188-0.486-0.459-0.81-1.809-0.972c-0.459-0.054-3.293-0.108-3.833-0.108
		c-0.135,0-0.188,0.081-0.188,0.27v6.829c0,0.189,0.026,0.297,0.188,0.297c0.594,0,3.698,0,4.319-0.054
		c0.647-0.054,1.053-0.135,1.296-0.405c0.188-0.216,0.297-0.351,0.432-0.351c0.107,0,0.188,0.054,0.188,0.216
		s-0.107,0.594-0.216,1.971c-0.027,0.54-0.107,1.619-0.107,1.808c0,0.216,0,0.513-0.243,0.513c-0.189,0-0.243-0.108-0.243-0.243
		c-0.027-0.27-0.027-0.621-0.108-0.972c-0.135-0.54-0.513-0.945-1.511-1.053c-0.514-0.054-3.186-0.081-3.833-0.081
		c-0.136,0-0.162,0.108-0.162,0.27v2.132c0,0.918-0.027,3.401,0,4.184c0.054,1.862,0.485,2.267,3.239,2.267
		c0.701,0,1.835,0,2.537-0.324s1.025-0.891,1.215-1.998c0.054-0.297,0.107-0.405,0.297-0.405c0.216,0,0.216,0.216,0.216,0.486
		c0,0.621-0.216,2.457-0.351,2.996c-0.189,0.702-0.433,0.702-1.458,0.702c-2.024,0-3.509-0.054-4.67-0.081
		c-1.16-0.054-1.997-0.081-2.808-0.081c-0.297,0-0.891,0-1.538,0.027c-0.621,0-1.322,0.054-1.862,0.054
		c-0.352,0-0.54-0.081-0.54-0.27c0-0.135,0.108-0.216,0.432-0.216c0.405,0,0.729-0.054,0.972-0.108
		c0.54-0.108,0.675-0.702,0.783-1.485c0.135-1.134,0.135-3.266,0.135-5.75V13.125z"/>
	<path fill="#004281" d="M283.9,13.125c0-4.103,0-4.859-0.054-5.723c-0.054-0.917-0.271-1.35-1.161-1.539
		c-0.216-0.054-0.675-0.081-1.053-0.081c-0.297,0-0.459-0.054-0.459-0.243s0.189-0.243,0.594-0.243c1.431,0,3.132,0.081,3.698,0.081
		c0.918,0,2.97-0.081,3.807-0.081c1.7,0,3.509,0.162,4.966,1.161c0.756,0.513,1.836,1.89,1.836,3.698
		c0,1.998-0.837,3.833-3.563,6.046c2.402,3.023,4.266,5.425,5.857,7.099c1.512,1.565,2.619,1.754,3.023,1.835
		c0.297,0.054,0.54,0.081,0.756,0.081s0.324,0.081,0.324,0.216c0,0.216-0.189,0.27-0.513,0.27h-2.564
		c-1.512,0-2.187-0.135-2.889-0.513c-1.16-0.621-2.187-1.89-3.698-3.968c-1.079-1.484-2.321-3.32-2.672-3.725
		c-0.135-0.162-0.297-0.189-0.485-0.189l-2.349-0.054c-0.135,0-0.216,0.054-0.216,0.216v0.378c0,2.51,0,4.643,0.135,5.776
		c0.081,0.783,0.243,1.377,1.053,1.485c0.404,0.054,0.999,0.108,1.322,0.108c0.216,0,0.324,0.081,0.324,0.216
		c0,0.189-0.189,0.27-0.54,0.27c-1.565,0-3.563-0.081-3.968-0.081c-0.513,0-2.214,0.081-3.293,0.081c-0.352,0-0.54-0.081-0.54-0.27
		c0-0.135,0.108-0.216,0.432-0.216c0.405,0,0.729-0.054,0.972-0.108c0.54-0.108,0.675-0.702,0.783-1.485
		c0.135-1.134,0.135-3.266,0.135-5.75V13.125z M287.086,15.257c0,0.297,0.054,0.405,0.242,0.486c0.567,0.189,1.377,0.27,2.052,0.27
		c1.08,0,1.431-0.108,1.917-0.459c0.81-0.594,1.592-1.835,1.592-4.049c0-3.833-2.537-4.94-4.13-4.94
		c-0.675,0-1.16,0.027-1.431,0.108c-0.188,0.054-0.242,0.162-0.242,0.377V15.257z"/>
	<path fill="#004281" d="M304.016,25.379c-0.432-0.188-0.513-0.324-0.513-0.917c0-1.485,0.107-3.104,0.135-3.536
		c0.026-0.405,0.107-0.702,0.324-0.702c0.242,0,0.27,0.243,0.27,0.459c0,0.351,0.108,0.917,0.243,1.376
		c0.594,1.998,2.187,2.726,3.859,2.726c2.43,0,3.617-1.646,3.617-3.077c0-1.323-0.404-2.564-2.646-4.319l-1.241-0.972
		c-2.97-2.321-3.995-4.211-3.995-6.397c0-2.969,2.483-5.102,6.235-5.102c1.755,0,2.889,0.27,3.59,0.459
		c0.243,0.054,0.378,0.135,0.378,0.324c0,0.351-0.107,1.134-0.107,3.239c0,0.594-0.081,0.81-0.297,0.81
		c-0.189,0-0.271-0.162-0.271-0.486c0-0.243-0.135-1.08-0.701-1.782c-0.405-0.513-1.188-1.323-2.942-1.323
		c-1.998,0-3.212,1.161-3.212,2.78c0,1.242,0.62,2.187,2.86,3.887l0.756,0.567c3.267,2.456,4.427,4.319,4.427,6.883
		c0,1.566-0.594,3.428-2.537,4.697c-1.35,0.864-2.861,1.107-4.292,1.107C306.391,26.082,305.176,25.893,304.016,25.379z"/>
	<path fill="#004281" d="M322.834,13.125c0-4.103,0-4.859-0.054-5.723c-0.054-0.917-0.324-1.376-0.918-1.512
		c-0.297-0.081-0.647-0.108-0.972-0.108c-0.27,0-0.432-0.054-0.432-0.27c0-0.162,0.216-0.216,0.647-0.216
		c1.025,0,2.727,0.081,3.509,0.081c0.675,0,2.268-0.081,3.293-0.081c0.352,0,0.567,0.054,0.567,0.216c0,0.216-0.162,0.27-0.432,0.27
		c-0.271,0-0.486,0.027-0.811,0.081c-0.729,0.135-0.944,0.594-0.998,1.539c-0.054,0.864-0.054,1.62-0.054,5.723v4.75
		c0,2.619,0,4.751,0.107,5.912c0.081,0.729,0.27,1.215,1.08,1.323c0.378,0.054,0.972,0.108,1.376,0.108
		c0.297,0,0.433,0.081,0.433,0.216c0,0.189-0.217,0.27-0.514,0.27c-1.781,0-3.481-0.081-4.211-0.081c-0.62,0-2.321,0.081-3.4,0.081
		c-0.352,0-0.54-0.081-0.54-0.27c0-0.135,0.108-0.216,0.432-0.216c0.405,0,0.729-0.054,0.972-0.108
		c0.54-0.108,0.702-0.567,0.783-1.35c0.135-1.134,0.135-3.266,0.135-5.885V13.125z"/>
	<path fill="#004281" d="M340.248,6.809l-4.021,0.108c-1.565,0.054-2.214,0.189-2.618,0.783c-0.271,0.405-0.405,0.729-0.459,0.945
		s-0.135,0.324-0.297,0.324c-0.189,0-0.243-0.135-0.243-0.432c0-0.432,0.513-2.888,0.566-3.104c0.081-0.351,0.162-0.513,0.324-0.513
		c0.216,0,0.486,0.27,1.161,0.324c0.782,0.081,1.809,0.135,2.699,0.135h10.688c0.864,0,1.458-0.081,1.863-0.135
		c0.404-0.081,0.62-0.135,0.729-0.135c0.188,0,0.216,0.162,0.216,0.567c0,0.567-0.081,2.429-0.081,3.131
		c-0.027,0.27-0.081,0.432-0.243,0.432c-0.216,0-0.27-0.135-0.297-0.54l-0.026-0.297c-0.055-0.702-0.783-1.458-3.186-1.512
		l-3.401-0.081v11.067c0,2.483,0,4.616,0.136,5.776c0.08,0.756,0.242,1.35,1.053,1.458c0.377,0.054,0.972,0.108,1.376,0.108
		c0.297,0,0.432,0.081,0.432,0.216c0,0.189-0.216,0.27-0.513,0.27c-1.781,0-3.481-0.081-4.237-0.081
		c-0.621,0-2.321,0.081-3.401,0.081c-0.351,0-0.54-0.081-0.54-0.27c0-0.135,0.108-0.216,0.432-0.216
		c0.405,0,0.729-0.054,0.972-0.108c0.54-0.108,0.702-0.702,0.783-1.485c0.135-1.134,0.135-3.266,0.135-5.75V6.809z"/>
	<path fill="#004281" d="M360.606,18.712c0-1.458-0.271-2.051-0.621-2.834c-0.188-0.432-3.806-6.37-4.751-7.774
		c-0.675-0.999-1.35-1.673-1.862-1.97c-0.351-0.189-0.81-0.351-1.134-0.351c-0.216,0-0.404-0.054-0.404-0.243
		c0-0.162,0.188-0.243,0.513-0.243c0.485,0,2.51,0.081,3.401,0.081c0.566,0,1.673-0.081,2.888-0.081c0.27,0,0.405,0.081,0.405,0.243
		c0,0.162-0.189,0.189-0.594,0.297c-0.243,0.054-0.378,0.27-0.378,0.486s0.135,0.54,0.323,0.917c0.378,0.81,4.157,7.315,4.589,8.071
		c0.271-0.648,3.671-6.586,4.049-7.423c0.271-0.594,0.378-1.053,0.378-1.403c0-0.27-0.107-0.567-0.566-0.675
		c-0.243-0.054-0.486-0.108-0.486-0.27c0-0.189,0.135-0.243,0.459-0.243c0.891,0,1.755,0.081,2.537,0.081
		c0.594,0,2.376-0.081,2.889-0.081c0.297,0,0.485,0.054,0.485,0.216c0,0.189-0.216,0.27-0.513,0.27c-0.27,0-0.782,0.108-1.188,0.324
		c-0.566,0.27-0.863,0.594-1.457,1.322c-0.892,1.08-4.67,7.423-5.156,8.584c-0.404,0.972-0.404,1.809-0.404,2.699v2.213
		c0,0.432,0,1.565,0.08,2.699c0.055,0.783,0.297,1.377,1.107,1.485c0.378,0.054,0.972,0.108,1.35,0.108
		c0.297,0,0.432,0.081,0.432,0.216c0,0.189-0.216,0.27-0.566,0.27c-1.701,0-3.401-0.081-4.13-0.081
		c-0.675,0-2.376,0.081-3.375,0.081c-0.378,0-0.594-0.054-0.594-0.27c0-0.135,0.136-0.216,0.433-0.216
		c0.378,0,0.701-0.054,0.944-0.108c0.54-0.108,0.783-0.702,0.837-1.485c0.081-1.134,0.081-2.267,0.081-2.699V18.712z"/>
</g>
<g>
</g>
<g>
</g>
<g>
</g>
<g>
</g>
<g>
</g>
<g>
</g>
<g>
</g>
<g>
</g>
<g>
</g>
<g>
</g>
<g>
</g>
<g>
</g>
<g>
</g>
<g>
</g>
<g>
</g>
</svg>
