<?xml version="1.0" standalone="no"?>
<!DOCTYPE svg PUBLIC "-//W3C//DTD SVG 20010904//EN"
 "http://www.w3.org/TR/2001/REC-SVG-20010904/DTD/svg10.dtd">
<svg version="1.0" xmlns="http://www.w3.org/2000/svg"
 width="3130.000000pt" height="3130.000000pt" viewBox="0 0 3130.000000 3130.000000"
 preserveAspectRatio="xMidYMid meet">
<metadata>
Created by potrace 1.14, written by Peter Selinger 2001-2017
</metadata>
<g transform="translate(0.000000,3130.000000) scale(0.100000,-0.100000)"
fill="#000000" stroke="none">
<path d="M15199 31036 c-2 -2 -89 -7 -194 -10 -104 -4 -210 -9 -235 -11 -25
-2 -92 -6 -150 -10 -154 -8 -344 -24 -383 -30 -12 -2 -58 -6 -102 -9 -44 -3
-89 -8 -100 -10 -11 -2 -51 -7 -90 -10 -98 -10 -126 -14 -267 -31 -24 -3 -55
-8 -70 -10 -15 -3 -47 -7 -71 -10 -23 -2 -72 -8 -107 -14 -58 -9 -114 -17
-175 -27 -119 -17 -378 -63 -520 -91 -71 -14 -143 -27 -160 -30 -16 -2 -66
-13 -110 -23 -69 -16 -236 -53 -300 -66 -11 -2 -110 -27 -220 -54 -110 -28
-208 -53 -217 -55 -9 -2 -51 -13 -93 -25 -42 -12 -84 -23 -93 -25 -9 -2 -57
-16 -107 -30 -49 -15 -97 -28 -105 -30 -54 -13 -411 -126 -595 -188 -316 -107
-706 -251 -832 -308 -24 -10 -46 -19 -49 -19 -3 0 -22 -7 -42 -16 -21 -9 -46
-20 -57 -24 -11 -4 -42 -18 -69 -30 -27 -12 -69 -30 -95 -40 -25 -10 -71 -29
-101 -43 -30 -14 -95 -43 -145 -65 -176 -77 -713 -340 -875 -427 -47 -25 -131
-71 -187 -101 -93 -50 -283 -158 -493 -281 -344 -201 -890 -564 -1260 -836
-105 -78 -432 -328 -440 -337 -5 -5 -163 -133 -234 -190 -42 -33 -282 -237
-330 -280 -21 -19 -44 -39 -50 -45 -198 -176 -189 -168 -332 -300 -153 -142
-588 -576 -729 -729 -60 -65 -119 -128 -130 -140 -17 -18 -71 -79 -219 -246
-50 -57 -198 -230 -251 -295 -28 -33 -53 -62 -56 -65 -3 -3 -70 -86 -148 -185
-78 -99 -148 -187 -155 -196 -7 -8 -46 -60 -87 -115 -40 -54 -77 -103 -82
-109 -4 -5 -22 -30 -40 -55 -18 -25 -46 -63 -63 -85 -258 -352 -607 -885 -825
-1263 -30 -52 -62 -108 -73 -125 -143 -246 -441 -818 -563 -1082 -152 -329
-197 -429 -308 -700 -194 -470 -334 -864 -510 -1435 -85 -275 -221 -799 -289
-1115 -1 -5 -5 -23 -9 -40 -4 -16 -9 -41 -11 -55 -2 -14 -10 -47 -16 -75 -6
-27 -14 -61 -16 -75 -3 -14 -12 -61 -20 -105 -8 -44 -24 -129 -35 -190 -11
-60 -22 -121 -24 -135 -7 -37 -54 -329 -61 -375 -3 -22 -7 -51 -9 -65 -4 -24
-32 -237 -41 -310 -2 -19 -6 -51 -9 -70 -2 -19 -7 -60 -10 -90 -3 -30 -8 -71
-10 -90 -4 -32 -10 -90 -20 -210 -5 -66 -16 -190 -20 -230 -2 -19 -6 -82 -9
-140 -4 -58 -9 -139 -11 -180 -16 -265 -20 -429 -20 -865 0 -424 7 -718 19
-885 2 -25 7 -100 10 -166 4 -67 9 -132 11 -145 2 -13 6 -64 10 -114 3 -49 7
-101 9 -115 3 -14 7 -59 11 -100 3 -41 8 -91 10 -110 2 -19 7 -62 10 -95 3
-33 8 -73 10 -90 2 -16 9 -73 15 -125 6 -52 14 -108 17 -125 3 -16 6 -41 8
-55 1 -14 6 -45 9 -70 4 -25 9 -63 12 -85 3 -22 7 -51 9 -65 6 -40 74 -443 79
-465 2 -11 11 -60 20 -110 9 -49 21 -110 27 -135 5 -25 30 -138 54 -251 107
-502 269 -1092 427 -1559 21 -63 51 -153 67 -200 16 -47 33 -96 39 -110 6 -14
24 -65 42 -115 74 -207 277 -716 358 -895 14 -30 33 -73 42 -95 40 -89 70
-154 106 -230 21 -44 38 -82 39 -85 2 -10 228 -461 288 -575 331 -628 744
-1295 1141 -1840 73 -99 143 -196 156 -215 14 -19 30 -40 35 -46 6 -6 51 -64
100 -129 50 -65 106 -137 125 -160 19 -24 57 -71 85 -106 27 -35 52 -66 55
-69 3 -3 35 -41 70 -85 36 -44 67 -82 70 -85 3 -3 46 -52 95 -110 74 -87 227
-262 245 -280 3 -3 29 -32 59 -65 267 -296 726 -757 997 -1001 44 -40 94 -85
111 -100 56 -52 167 -151 203 -180 19 -16 40 -34 46 -40 6 -5 35 -30 64 -55
29 -24 58 -49 64 -54 6 -6 49 -42 96 -80 47 -39 94 -78 105 -87 28 -24 326
-259 359 -283 15 -11 93 -70 174 -130 298 -224 840 -593 1040 -710 9 -5 35
-22 57 -36 22 -15 56 -36 75 -47 19 -11 118 -69 220 -129 102 -60 210 -123
240 -140 30 -16 91 -50 135 -75 212 -119 702 -366 985 -496 687 -315 1383
-574 2115 -789 104 -30 422 -118 465 -128 8 -2 107 -26 220 -54 113 -27 216
-52 230 -55 14 -2 45 -9 70 -15 25 -5 56 -12 70 -15 14 -2 115 -23 225 -45
110 -22 214 -43 230 -46 50 -9 268 -46 300 -51 17 -3 55 -9 85 -14 30 -5 75
-12 100 -15 25 -3 52 -8 60 -10 8 -3 37 -7 64 -9 27 -3 83 -10 125 -16 42 -6
95 -13 116 -15 22 -3 58 -8 80 -10 22 -3 56 -8 75 -10 93 -11 158 -18 185 -20
17 -2 59 -6 95 -9 208 -21 318 -30 510 -41 63 -4 131 -8 150 -10 255 -24 1404
-24 1710 0 30 2 100 7 155 10 55 3 120 8 145 10 25 2 88 7 140 10 52 4 104 9
115 11 11 2 56 6 100 9 44 3 87 8 95 10 8 2 53 7 99 10 47 3 87 8 90 10 3 1
40 6 81 10 41 3 82 8 90 10 8 3 35 7 60 10 41 4 160 21 220 30 14 2 48 7 75
11 28 3 52 8 55 9 3 2 33 6 65 10 33 3 67 8 75 10 8 3 31 7 50 10 37 6 287 51
333 60 15 3 37 7 50 9 112 22 344 70 437 91 63 15 124 28 135 30 46 10 468
118 570 146 404 113 796 238 1180 377 193 71 524 199 610 237 17 7 91 38 165
70 74 31 168 72 208 91 41 19 75 34 77 34 2 0 65 29 140 65 76 36 139 65 142
65 6 0 451 223 536 269 40 21 106 57 147 78 41 22 91 49 110 60 19 11 62 35
95 53 169 93 565 328 720 428 135 87 510 335 515 341 3 4 43 32 90 64 218 149
714 522 880 663 14 12 86 72 160 133 74 62 146 122 160 135 14 12 77 67 140
121 63 55 124 109 135 120 11 11 45 42 75 69 295 265 728 701 1045 1050 44 49
85 94 90 100 155 170 582 686 700 846 11 15 65 88 121 161 220 292 447 621
666 964 134 211 368 601 368 615 0 6 5 10 10 10 6 0 10 5 10 11 0 6 17 41 39
77 52 91 84 149 149 272 30 58 58 110 62 115 11 14 208 410 275 551 163 342
336 746 460 1074 43 113 83 219 90 235 40 97 214 618 275 825 17 58 43 143 57
190 14 47 31 108 38 135 7 28 20 77 29 110 24 86 87 326 92 350 2 11 7 33 10
49 2 16 7 32 9 36 2 3 6 17 9 31 2 13 21 96 41 184 20 88 40 180 45 205 5 25
12 56 15 70 3 14 8 39 11 55 3 17 9 48 14 70 5 22 11 56 14 75 3 19 13 71 21
115 9 44 18 96 21 115 3 19 7 42 9 50 3 8 7 33 10 55 5 36 8 54 20 130 2 11
11 70 20 130 9 61 18 121 21 135 10 65 27 199 39 310 3 30 8 62 10 70 2 8 7
49 10 90 4 41 8 86 10 100 2 14 7 59 10 100 3 41 8 86 10 100 2 14 6 69 10
123 4 54 8 106 10 115 2 15 10 127 20 312 29 506 24 1430 -10 1870 -3 41 -7
109 -10 150 -3 41 -7 95 -10 120 -2 25 -7 72 -10 105 -17 202 -15 185 -30 310
-3 28 -8 70 -10 93 -2 24 -6 56 -9 70 -3 15 -8 54 -11 87 -7 64 -7 64 -30 230
-9 61 -18 126 -21 145 -4 30 -23 141 -65 390 -5 30 -11 66 -14 80 -3 14 -9 50
-15 80 -6 30 -12 66 -15 80 -5 24 -10 48 -20 100 -97 507 -285 1215 -465 1760
-104 313 -279 792 -345 945 -7 17 -41 97 -75 179 -215 522 -483 1066 -815
1661 -25 45 -218 372 -248 419 -7 11 -51 83 -99 160 -48 78 -91 146 -95 151
-5 6 -26 37 -47 70 -58 90 -214 322 -260 388 -128 181 -187 263 -195 273 -4 6
-46 62 -92 125 -46 63 -86 116 -89 119 -3 3 -42 52 -86 110 -43 58 -81 107
-84 110 -3 3 -30 36 -60 75 -424 540 -1086 1249 -1630 1745 -177 161 -202 184
-295 264 -99 86 -112 98 -200 171 -33 28 -62 53 -65 56 -3 3 -99 81 -215 173
-115 92 -219 175 -230 184 -59 48 -423 315 -575 422 -467 328 -974 642 -1485
920 -268 147 -720 372 -965 482 -25 11 -65 29 -90 41 -25 11 -112 49 -195 84
-82 36 -163 71 -180 78 -81 36 -425 169 -635 247 -30 11 -64 24 -75 29 -40 17
-563 189 -725 238 -274 82 -775 219 -860 234 -14 3 -43 10 -65 15 -22 6 -51
13 -65 16 -14 3 -108 23 -210 46 -102 23 -219 47 -260 55 -41 7 -122 23 -180
34 -154 30 -617 105 -710 115 -19 3 -71 9 -115 15 -44 7 -100 14 -125 17 -25
2 -58 6 -75 9 -28 4 -66 8 -190 20 -27 3 -66 8 -85 10 -19 2 -69 7 -110 10
-41 3 -95 8 -120 10 -149 14 -244 20 -425 30 -60 3 -144 8 -185 11 -84 6
-1145 15 -1151 10z"/>
</g>
</svg>
